<svg width="800" height="600" xmlns="http://www.w3.org/2000/svg">

 <g>
  <title>Layer 1</title>
  <g stroke="null">
   <g stroke="null"/>
   <g stroke="null"/>
   <g stroke="null"/>
   <g stroke="null"/>
   <g stroke="null"/>
   <g stroke="null"/>
   <g stroke="null"/>
   <g stroke="null"/>
   <g stroke="null"/>
   <g stroke="null"/>
   <g stroke="null"/>
   <g stroke="null"/>
   <g stroke="null"/>
   <g stroke="null"/>
   <g stroke="null"/>
  </g>
  <g>
   <title>ionicons-v5-f</title>
  </g>
  <g>
   <g id="svg_15">
    <path fill="#549E83" d="m526.07998,191.10535c-26,-23.09 -64.73,-32.8 -98.88,-29.64c-17.18,1.59 -31,8.71 -46.66,15.06c-22,8.9 -36.54,5 -59,2.6c-65.21,-7.09 -95.31,55.91 -96.44,102.91c-1.38,57.18 38.65,109.36 95,123.89c37.93,9.78 74.47,10.19 107.68,-2.12c25.92,-9.62 32.39,-30.74 40.62,-55.06c6.3,-18.58 11.91,-39.55 25.84,-54.15c12.73,-13.36 25.84,-2.11 40.5,-10.23c37.26,-20.66 13.26,-73.8 -8.66,-93.26z"/>
    <path opacity="0.9" fill="#fff" d="m526.07998,191.10535c-26,-23.09 -64.73,-32.8 -98.88,-29.64c-17.18,1.59 -31,8.71 -46.66,15.06c-22,8.9 -36.54,5 -59,2.6c-65.21,-7.09 -95.31,55.91 -96.44,102.91c-1.38,57.18 38.65,109.36 95,123.89c37.93,9.78 74.47,10.19 107.68,-2.12c25.92,-9.62 32.39,-30.74 40.62,-55.06c6.3,-18.58 11.91,-39.55 25.84,-54.15c12.73,-13.36 25.84,-2.11 40.5,-10.23c37.26,-20.66 13.26,-73.8 -8.66,-93.26z"/>
   </g>
   <g id="svg_13">
    <ellipse fill="#f5f5f5" ry="11.32" rx="193.89" cy="463.27535" cx="399.99998" id="svg_14"/>
   </g>
   <polygon fill="#549E83" points="466.49998474121094,146.33535766601562 235.97998809814453,146.33535766601562 251.14998626708984,460.27532958984375 481.6699981689453,460.27532958984375 466.49998474121094,146.33535766601562 "/>
   <polygon opacity="0.2" points="466.49998474121094,146.33535766601562 235.97998809814453,146.33535766601562 251.14998626708984,460.27532958984375 481.6699981689453,460.27532958984375 466.49998474121094,146.33535766601562 "/>
   <polygon fill="#549E83" points="468.62998962402344,146.33535766601562 238.1099853515625,146.33535766601562 253.28998565673828,460.27532958984375 483.8099822998047,460.27532958984375 468.62998962402344,146.33535766601562 "/>
   <polygon opacity="0.2" points="456.45997619628906,156.89535522460938 248.64998626708984,156.89535522460938 263.16998291015625,446.0853576660156 443.86997985839844,445.8453674316406 473.8999786376953,419.225341796875 456.45997619628906,156.89535522460938 "/>
   <path fill="#fff" d="m458.04998,156.88535a2354.69,2354.69 0 0 0 20.95,258.86q-24.7,17 -49.15,34l-155.42,0a2360.67,2360.67 0 0 1 -25.78,-292.86l209.4,0z"/>
   <path fill="#ebebeb" d="m478.99998,415.74535q-24.7,17 -49.15,34q5.34,-22.5 11.13,-45l38.02,11z"/>
   <path fill="#e0e0e0" d="m434.81998,195.27535l-108.82,0c-0.1,-2.39 -0.19,-4.79 -0.28,-7.18l108.81,0c0.09,2.39 0.19,4.79 0.29,7.18z"/>
   <path fill="#e0e0e0" d="m411.82998,210.37535l-85.16,0c-0.11,-2.4 -0.23,-4.79 -0.33,-7.18l85.15,0q0.17,3.59 0.34,7.18z"/>
   <path fill="#e0e0e0" d="m369.39998,257.52535l-40,0c-0.16,-2.4 -0.33,-4.79 -0.48,-7.19l40,0c0.15,2.4 0.31,4.79 0.48,7.19z"/>
   <path fill="#e0e0e0" d="m407.26998,257.52535l-29.41,0c-0.16,-2.4 -0.33,-4.79 -0.48,-7.19l29.41,0c0.15,2.4 0.31,4.79 0.48,7.19z"/>
   <path fill="#e0e0e0" d="m425.72998,272.63535l-95.23,0c-0.18,-2.4 -0.35,-4.79 -0.53,-7.19l95.23,0c0.18,2.4 0.35,4.79 0.53,7.19z"/>
   <path fill="#e0e0e0" d="m444.09998,327.72535l-108.83,0l0.72,7.18l108.83,0l-0.72,-7.18z"/>
   <path fill="#e0e0e0" d="m418.99998,312.61535l-85.16,0c0.22,2.39 0.44,4.79 0.67,7.18l85.15,0c-0.22,-2.39 -0.45,-4.76 -0.66,-7.18z"/>
   <path fill="#e0e0e0" d="m450.08998,382.03535l-108.83,0c-0.29,-2.4 -0.58,-4.79 -0.86,-7.19l108.82,0c0.29,2.43 0.57,4.82 0.87,7.19z"/>
   <path fill="#e0e0e0" d="m392.68998,397.16535l-49.54,0c-0.31,-2.39 -0.61,-4.79 -0.91,-7.18l49.54,0c0.3,2.39 0.6,4.79 0.91,7.18z"/>
   <path fill="#e0e0e0" d="m422.26998,397.16535l-21.39,0c-0.31,-2.39 -0.61,-4.79 -0.91,-7.18l21.39,0c0.3,2.39 0.64,4.79 0.91,7.18z"/>
   <path fill="#ebebeb" d="m401.12998,432.49535c-5.9,0 -9.3,-2.18 -12.3,-4.1s-5.58,-3.58 -10.56,-3.58s-7.2,1.74 -9.55,3.58s-5.23,4.1 -11.13,4.1s-9.3,-2.18 -12.29,-4.1s-5.57,-3.58 -10.56,-3.58s-7.2,1.74 -9.55,3.58s-5.23,4.1 -11.12,4.1s-9.3,-2.18 -12.3,-4.1s-5.57,-3.58 -10.56,-3.58c-0.13,-1 -0.27,-1.92 -0.4,-2.88c5.9,0 9.29,2.18 12.29,4.1s5.57,3.58 10.55,3.58s7.2,-1.74 9.55,-3.58s5.24,-4.1 11.14,-4.1s9.28,2.18 12.28,4.1s5.58,3.58 10.56,3.58s7.2,-1.74 9.55,-3.58s5.24,-4.1 11.14,-4.1s9.29,2.18 12.29,4.1s5.57,3.58 10.56,3.58c0.13,0.96 0.28,1.92 0.41,2.88z"/>
   <path fill="#263238" d="m409.58998,154.10535c-3.38,-9 -11.19,-14.91 -19.59,-14.91l-17.12,0a6.51,6.51 0 0 1 -5.95,-4a16,16 0 0 0 -14.57,-9.79a14.17,14.17 0 0 0 -13.62,9.79a5.78,5.78 0 0 1 -5.57,4l-17.11,0c-8.41,0 -15.65,5.94 -18.15,14.91l-1,3.57l114,0l-1.32,-3.57z"/>
   <path fill="#549E83" d="m410.19998,161.19535l-112.2,0a3.74,3.74 0 0 1 -3.69,-3.52l0,0a3.33,3.33 0 0 1 3.35,-3.51l112.2,0a3.74,3.74 0 0 1 3.69,3.51l0,0a3.33,3.33 0 0 1 -3.35,3.52z"/>
   <path opacity="0.2" d="m410.19998,161.19535l-112.2,0a3.74,3.74 0 0 1 -3.69,-3.52l0,0a3.33,3.33 0 0 1 3.35,-3.51l112.2,0a3.74,3.74 0 0 1 3.69,3.51l0,0a3.33,3.33 0 0 1 -3.35,3.52z"/>
   <g stroke="null">
    <g stroke="null" id="svg_66"/>
    <g stroke="null" id="svg_65">
     <path stroke="null" fill="#FF725E" d="m231.54353,244.75411a8.37,8.37 0 0 0 -3.31,-3.78a8.06,8.06 0 0 0 -4.73,-1.34a6.59,6.59 0 0 0 -4.6,2.34a6.5,6.5 0 0 0 -1.36,2.82a6.52,6.52 0 0 0 -2.42,-1.48a6.6,6.6 0 0 0 -5.15,0.42a8,8 0 0 0 -3.32,3.63a8.33,8.33 0 0 0 -0.83,4.95a10.2,10.2 0 0 0 2.93,5.68a14.41,14.41 0 0 0 6,3.11c3.65,1 8.42,2.18 8.42,2.18s2.73,-3.58 5.31,-6.34a14.37,14.37 0 0 0 3.51,-5.82a10.17,10.17 0 0 0 -0.45,-6.37z"/>
     <path stroke="null" fill="#FF725E" d="m526.74353,138.38411a14,14 0 0 0 0.26,-8.41a13.45,13.45 0 0 0 -4.29,-7a10.83,10.83 0 0 0 -13.18,-0.46a10.93,10.93 0 0 0 -1.29,-4.58a11.06,11.06 0 0 0 -6.8,-5.35a13.45,13.45 0 0 0 -8.21,0.66a14,14 0 0 0 -6.66,5.14a17.1,17.1 0 0 0 -2.88,10.3a24.11,24.11 0 0 0 3.86,10.71c3.35,5.37 7.85,12.27 7.85,12.27s7.44,-1.28 13.75,-1.72a24.12,24.12 0 0 0 10.94,-3.16a17,17 0 0 0 6.65,-8.4z"/>
     <path stroke="null" fill="#FF725E" d="m500.61903,245.63723a7.42,7.42 0 0 0 -0.58,-4.4a7.1,7.1 0 0 0 -2.82,-3.3a5.71,5.71 0 0 0 -6.9,0.87a5.68,5.68 0 0 0 -1.06,-2.28a5.79,5.79 0 0 0 -4,-2.21a7.16,7.16 0 0 0 -4.22,1a7.41,7.41 0 0 0 -3,3.24a8.93,8.93 0 0 0 -0.63,5.6a12.62,12.62 0 0 0 2.91,5.25c2.19,2.52 5.11,5.73 5.11,5.73s3.77,-1.29 7,-2.05a12.91,12.91 0 0 0 5.43,-2.56a9.06,9.06 0 0 0 2.76,-4.89z"/>
     <path stroke="null" fill="#FF725E" d="m232.78353,295.57411a3.51,3.51 0 0 0 -1.3,-1.67a3.45,3.45 0 0 0 -1.95,-0.67a2.76,2.76 0 0 0 -2.63,2a2.66,2.66 0 0 0 -1,-0.68a2.73,2.73 0 0 0 -2.17,0.06a3.32,3.32 0 0 0 -1.48,1.44a3.56,3.56 0 0 0 -0.47,2.06a4.33,4.33 0 0 0 1.1,2.46a6.13,6.13 0 0 0 2.46,1.45c1.51,0.5 3.49,1.11 3.49,1.11s1.23,-1.44 2.38,-2.54a6,6 0 0 0 1.61,-2.36a4.27,4.27 0 0 0 -0.04,-2.66z"/>
     <path stroke="null" fill="#FF725E" d="m180.24353,329.78411a3.57,3.57 0 0 0 -1.3,-1.66a3.48,3.48 0 0 0 -2,-0.67a2.8,2.8 0 0 0 -2,0.88a2.76,2.76 0 0 0 -0.63,1.15a2.62,2.62 0 0 0 -1,-0.68a2.73,2.73 0 0 0 -2.17,0.06a3.37,3.37 0 0 0 -1.48,1.44a3.48,3.48 0 0 0 -0.46,2.06a4.33,4.33 0 0 0 1.1,2.46a6.07,6.07 0 0 0 2.46,1.45c1.51,0.5 3.48,1.11 3.48,1.11s1.24,-1.44 2.39,-2.54a6,6 0 0 0 1.6,-2.36a4.27,4.27 0 0 0 0.01,-2.7z"/>
     <path stroke="null" fill="#FF725E" d="m532.92738,307.46787a3.54,3.54 0 0 0 -1.3,-1.66a3.39,3.39 0 0 0 -2,-0.68a2.76,2.76 0 0 0 -2.62,2a2.71,2.71 0 0 0 -3.15,-0.62a3.4,3.4 0 0 0 -1.49,1.44a3.63,3.63 0 0 0 -0.46,2.06a4.3,4.3 0 0 0 1.1,2.46a6.07,6.07 0 0 0 2.46,1.45c1.51,0.5 3.49,1.11 3.49,1.11s1.23,-1.44 2.38,-2.54a6.07,6.07 0 0 0 1.61,-2.36a4.34,4.34 0 0 0 -0.02,-2.66z"/>
    </g>
   </g>
  </g>
 </g>
</svg>